<mxfile host="app.diagrams.net" agent="Mozilla/5.0 (Windows NT 10.0; Win64; x64) AppleWebKit/537.36 (KHTML, like Gecko) Chrome/128.0.0.0 Safari/537.36" version="24.7.13">
  <diagram name="Página-1" id="24HMQWVAIdSYc8zCq1KH">
    <mxGraphModel dx="2534" dy="466" grid="1" gridSize="10" guides="1" tooltips="1" connect="1" arrows="1" fold="1" page="1" pageScale="1" pageWidth="827" pageHeight="1169" math="0" shadow="0">
      <root>
        <mxCell id="0" />
        <mxCell id="1" parent="0" />
        <mxCell id="fTdmXy7tgA4tEe0zFuN1-128" value="" style="rounded=0;whiteSpace=wrap;html=1;" vertex="1" parent="1">
          <mxGeometry x="1940" y="570" width="710" height="670" as="geometry" />
        </mxCell>
        <mxCell id="fTdmXy7tgA4tEe0zFuN1-85" value="" style="rounded=0;whiteSpace=wrap;html=1;" vertex="1" parent="1">
          <mxGeometry x="897" y="570" width="920" height="670" as="geometry" />
        </mxCell>
        <mxCell id="fTdmXy7tgA4tEe0zFuN1-68" value="" style="rounded=0;whiteSpace=wrap;html=1;" vertex="1" parent="1">
          <mxGeometry x="-90" y="570" width="920" height="670" as="geometry" />
        </mxCell>
        <mxCell id="fTdmXy7tgA4tEe0zFuN1-71" value="Acceder proyecto" style="text;html=1;align=center;verticalAlign=middle;resizable=0;points=[];autosize=1;strokeColor=none;fillColor=none;" vertex="1" parent="1">
          <mxGeometry x="-66" y="570" width="120" height="30" as="geometry" />
        </mxCell>
        <mxCell id="fTdmXy7tgA4tEe0zFuN1-72" style="edgeStyle=orthogonalEdgeStyle;rounded=0;orthogonalLoop=1;jettySize=auto;html=1;entryX=0.5;entryY=0;entryDx=0;entryDy=0;" edge="1" parent="1" source="fTdmXy7tgA4tEe0zFuN1-73" target="fTdmXy7tgA4tEe0zFuN1-77">
          <mxGeometry relative="1" as="geometry">
            <mxPoint x="308" y="720" as="targetPoint" />
            <Array as="points" />
          </mxGeometry>
        </mxCell>
        <mxCell id="fTdmXy7tgA4tEe0zFuN1-73" value="Ingresar resumen de proyecto" style="whiteSpace=wrap;html=1;" vertex="1" parent="1">
          <mxGeometry x="248" y="640" width="120" height="60" as="geometry" />
        </mxCell>
        <mxCell id="fTdmXy7tgA4tEe0zFuN1-75" style="edgeStyle=orthogonalEdgeStyle;rounded=0;orthogonalLoop=1;jettySize=auto;html=1;entryX=0.5;entryY=0;entryDx=0;entryDy=0;" edge="1" parent="1" source="fTdmXy7tgA4tEe0zFuN1-77" target="fTdmXy7tgA4tEe0zFuN1-79">
          <mxGeometry relative="1" as="geometry">
            <Array as="points">
              <mxPoint x="203" y="780" />
            </Array>
          </mxGeometry>
        </mxCell>
        <mxCell id="fTdmXy7tgA4tEe0zFuN1-76" style="edgeStyle=orthogonalEdgeStyle;rounded=0;orthogonalLoop=1;jettySize=auto;html=1;entryX=0.5;entryY=0;entryDx=0;entryDy=0;" edge="1" parent="1" source="fTdmXy7tgA4tEe0zFuN1-77" target="fTdmXy7tgA4tEe0zFuN1-81">
          <mxGeometry relative="1" as="geometry">
            <mxPoint x="400" y="990" as="targetPoint" />
            <Array as="points">
              <mxPoint x="400" y="780" />
              <mxPoint x="400" y="990" />
            </Array>
          </mxGeometry>
        </mxCell>
        <mxCell id="fTdmXy7tgA4tEe0zFuN1-77" value="¿Existen riesgos cargados?" style="rhombus;whiteSpace=wrap;html=1;" vertex="1" parent="1">
          <mxGeometry x="253" y="730" width="110" height="100" as="geometry" />
        </mxCell>
        <mxCell id="fTdmXy7tgA4tEe0zFuN1-175" style="edgeStyle=orthogonalEdgeStyle;rounded=0;orthogonalLoop=1;jettySize=auto;html=1;entryX=0.5;entryY=0;entryDx=0;entryDy=0;" edge="1" parent="1" source="fTdmXy7tgA4tEe0zFuN1-79" target="fTdmXy7tgA4tEe0zFuN1-173">
          <mxGeometry relative="1" as="geometry" />
        </mxCell>
        <mxCell id="fTdmXy7tgA4tEe0zFuN1-79" value="Cargar graficas y metricas" style="whiteSpace=wrap;html=1;" vertex="1" parent="1">
          <mxGeometry x="143" y="1000" width="120" height="60" as="geometry" />
        </mxCell>
        <mxCell id="fTdmXy7tgA4tEe0zFuN1-174" style="edgeStyle=orthogonalEdgeStyle;rounded=0;orthogonalLoop=1;jettySize=auto;html=1;" edge="1" parent="1" source="fTdmXy7tgA4tEe0zFuN1-81" target="fTdmXy7tgA4tEe0zFuN1-173">
          <mxGeometry relative="1" as="geometry" />
        </mxCell>
        <mxCell id="fTdmXy7tgA4tEe0zFuN1-81" value="Cargar graficos y metricas vacias" style="whiteSpace=wrap;html=1;" vertex="1" parent="1">
          <mxGeometry x="340" y="1000" width="120" height="60" as="geometry" />
        </mxCell>
        <mxCell id="fTdmXy7tgA4tEe0zFuN1-82" value="No" style="text;html=1;align=center;verticalAlign=middle;resizable=0;points=[];autosize=1;strokeColor=none;fillColor=none;" vertex="1" parent="1">
          <mxGeometry x="383" y="750" width="40" height="30" as="geometry" />
        </mxCell>
        <mxCell id="fTdmXy7tgA4tEe0zFuN1-83" value="Si" style="text;html=1;align=center;verticalAlign=middle;resizable=0;points=[];autosize=1;strokeColor=none;fillColor=none;" vertex="1" parent="1">
          <mxGeometry x="213" y="750" width="30" height="30" as="geometry" />
        </mxCell>
        <mxCell id="fTdmXy7tgA4tEe0zFuN1-29" value="" style="rounded=0;whiteSpace=wrap;html=1;" vertex="1" parent="1">
          <mxGeometry x="-856" y="570" width="730" height="670" as="geometry" />
        </mxCell>
        <mxCell id="fTdmXy7tgA4tEe0zFuN1-5" style="edgeStyle=orthogonalEdgeStyle;rounded=0;orthogonalLoop=1;jettySize=auto;html=1;entryX=0.5;entryY=0;entryDx=0;entryDy=0;" edge="1" parent="1" source="fTdmXy7tgA4tEe0zFuN1-1" target="fTdmXy7tgA4tEe0zFuN1-4">
          <mxGeometry relative="1" as="geometry" />
        </mxCell>
        <mxCell id="fTdmXy7tgA4tEe0zFuN1-1" value="Inicio" style="rounded=1;whiteSpace=wrap;html=1;" vertex="1" parent="1">
          <mxGeometry x="356" y="10" width="116" height="30" as="geometry" />
        </mxCell>
        <mxCell id="fTdmXy7tgA4tEe0zFuN1-11" style="edgeStyle=orthogonalEdgeStyle;rounded=0;orthogonalLoop=1;jettySize=auto;html=1;entryX=1;entryY=0.5;entryDx=0;entryDy=0;" edge="1" parent="1" source="fTdmXy7tgA4tEe0zFuN1-3" target="fTdmXy7tgA4tEe0zFuN1-1">
          <mxGeometry relative="1" as="geometry">
            <Array as="points">
              <mxPoint x="600" y="25" />
            </Array>
          </mxGeometry>
        </mxCell>
        <mxCell id="fTdmXy7tgA4tEe0zFuN1-3" value="Solicitar registro" style="rounded=0;whiteSpace=wrap;html=1;" vertex="1" parent="1">
          <mxGeometry x="540" y="95" width="120" height="60" as="geometry" />
        </mxCell>
        <mxCell id="fTdmXy7tgA4tEe0zFuN1-7" style="edgeStyle=orthogonalEdgeStyle;rounded=0;orthogonalLoop=1;jettySize=auto;html=1;" edge="1" parent="1" source="fTdmXy7tgA4tEe0zFuN1-4" target="fTdmXy7tgA4tEe0zFuN1-6">
          <mxGeometry relative="1" as="geometry" />
        </mxCell>
        <mxCell id="fTdmXy7tgA4tEe0zFuN1-8" style="edgeStyle=orthogonalEdgeStyle;rounded=0;orthogonalLoop=1;jettySize=auto;html=1;" edge="1" parent="1" source="fTdmXy7tgA4tEe0zFuN1-4" target="fTdmXy7tgA4tEe0zFuN1-3">
          <mxGeometry relative="1" as="geometry" />
        </mxCell>
        <mxCell id="fTdmXy7tgA4tEe0zFuN1-4" value="¿Esta registrado?" style="rhombus;whiteSpace=wrap;html=1;" vertex="1" parent="1">
          <mxGeometry x="366" y="80" width="96" height="90" as="geometry" />
        </mxCell>
        <mxCell id="fTdmXy7tgA4tEe0zFuN1-15" style="edgeStyle=orthogonalEdgeStyle;rounded=0;orthogonalLoop=1;jettySize=auto;html=1;" edge="1" parent="1" source="fTdmXy7tgA4tEe0zFuN1-6" target="fTdmXy7tgA4tEe0zFuN1-14">
          <mxGeometry relative="1" as="geometry">
            <Array as="points">
              <mxPoint x="310" y="270" />
            </Array>
          </mxGeometry>
        </mxCell>
        <mxCell id="fTdmXy7tgA4tEe0zFuN1-19" style="edgeStyle=orthogonalEdgeStyle;rounded=0;orthogonalLoop=1;jettySize=auto;html=1;entryX=0.5;entryY=0;entryDx=0;entryDy=0;" edge="1" parent="1" source="fTdmXy7tgA4tEe0zFuN1-6">
          <mxGeometry relative="1" as="geometry">
            <mxPoint x="557" y="350" as="targetPoint" />
          </mxGeometry>
        </mxCell>
        <mxCell id="fTdmXy7tgA4tEe0zFuN1-6" value="¿Es administrador?" style="rhombus;whiteSpace=wrap;html=1;" vertex="1" parent="1">
          <mxGeometry x="347" y="220" width="134" height="100" as="geometry" />
        </mxCell>
        <mxCell id="fTdmXy7tgA4tEe0zFuN1-9" value="Si" style="text;html=1;align=center;verticalAlign=middle;resizable=0;points=[];autosize=1;strokeColor=none;fillColor=none;" vertex="1" parent="1">
          <mxGeometry x="380" y="180" width="30" height="30" as="geometry" />
        </mxCell>
        <mxCell id="fTdmXy7tgA4tEe0zFuN1-10" value="No" style="text;html=1;align=center;verticalAlign=middle;resizable=0;points=[];autosize=1;strokeColor=none;fillColor=none;" vertex="1" parent="1">
          <mxGeometry x="457" y="95" width="40" height="30" as="geometry" />
        </mxCell>
        <mxCell id="fTdmXy7tgA4tEe0zFuN1-13" style="rounded=0;orthogonalLoop=1;jettySize=auto;html=1;endArrow=none;endFill=0;dashed=1;dashPattern=12 12;" edge="1" parent="1" source="fTdmXy7tgA4tEe0zFuN1-12" target="fTdmXy7tgA4tEe0zFuN1-3">
          <mxGeometry relative="1" as="geometry" />
        </mxCell>
        <mxCell id="fTdmXy7tgA4tEe0zFuN1-12" value="Esto es manual" style="ellipse;shape=cloud;whiteSpace=wrap;html=1;" vertex="1" parent="1">
          <mxGeometry x="690" y="70" width="120" height="80" as="geometry" />
        </mxCell>
        <mxCell id="fTdmXy7tgA4tEe0zFuN1-45" style="edgeStyle=orthogonalEdgeStyle;rounded=0;orthogonalLoop=1;jettySize=auto;html=1;" edge="1" parent="1" source="fTdmXy7tgA4tEe0zFuN1-14" target="fTdmXy7tgA4tEe0zFuN1-32">
          <mxGeometry relative="1" as="geometry">
            <Array as="points">
              <mxPoint x="310" y="530" />
              <mxPoint x="-496" y="530" />
            </Array>
          </mxGeometry>
        </mxCell>
        <mxCell id="fTdmXy7tgA4tEe0zFuN1-84" style="edgeStyle=orthogonalEdgeStyle;rounded=0;orthogonalLoop=1;jettySize=auto;html=1;" edge="1" parent="1" source="fTdmXy7tgA4tEe0zFuN1-14" target="fTdmXy7tgA4tEe0zFuN1-73">
          <mxGeometry relative="1" as="geometry">
            <Array as="points">
              <mxPoint x="310" y="700" />
            </Array>
          </mxGeometry>
        </mxCell>
        <mxCell id="fTdmXy7tgA4tEe0zFuN1-115" style="edgeStyle=orthogonalEdgeStyle;rounded=0;orthogonalLoop=1;jettySize=auto;html=1;" edge="1" parent="1" source="fTdmXy7tgA4tEe0zFuN1-14" target="fTdmXy7tgA4tEe0zFuN1-88">
          <mxGeometry relative="1" as="geometry">
            <Array as="points">
              <mxPoint x="310" y="530" />
              <mxPoint x="1262" y="530" />
            </Array>
          </mxGeometry>
        </mxCell>
        <mxCell id="fTdmXy7tgA4tEe0zFuN1-145" style="edgeStyle=orthogonalEdgeStyle;rounded=0;orthogonalLoop=1;jettySize=auto;html=1;" edge="1" parent="1" source="fTdmXy7tgA4tEe0zFuN1-14" target="fTdmXy7tgA4tEe0zFuN1-131">
          <mxGeometry relative="1" as="geometry">
            <Array as="points">
              <mxPoint x="310" y="530" />
              <mxPoint x="2315" y="530" />
            </Array>
          </mxGeometry>
        </mxCell>
        <mxCell id="fTdmXy7tgA4tEe0zFuN1-14" value="Ingresa a pantalla de gestión de proyectos" style="rounded=0;whiteSpace=wrap;html=1;" vertex="1" parent="1">
          <mxGeometry x="250" y="450" width="120" height="60" as="geometry" />
        </mxCell>
        <mxCell id="fTdmXy7tgA4tEe0zFuN1-20" value="Si" style="text;html=1;align=center;verticalAlign=middle;resizable=0;points=[];autosize=1;strokeColor=none;fillColor=none;" vertex="1" parent="1">
          <mxGeometry x="315" y="238" width="30" height="30" as="geometry" />
        </mxCell>
        <mxCell id="fTdmXy7tgA4tEe0zFuN1-21" value="No" style="text;html=1;align=center;verticalAlign=middle;resizable=0;points=[];autosize=1;strokeColor=none;fillColor=none;" vertex="1" parent="1">
          <mxGeometry x="490" y="238" width="40" height="30" as="geometry" />
        </mxCell>
        <mxCell id="fTdmXy7tgA4tEe0zFuN1-28" value="Fin" style="rounded=1;whiteSpace=wrap;html=1;" vertex="1" parent="1">
          <mxGeometry x="500" y="350" width="116" height="30" as="geometry" />
        </mxCell>
        <mxCell id="fTdmXy7tgA4tEe0zFuN1-30" value="Crear proyecto" style="text;html=1;align=center;verticalAlign=middle;resizable=0;points=[];autosize=1;strokeColor=none;fillColor=none;" vertex="1" parent="1">
          <mxGeometry x="-856" y="570" width="100" height="30" as="geometry" />
        </mxCell>
        <mxCell id="fTdmXy7tgA4tEe0zFuN1-31" style="edgeStyle=orthogonalEdgeStyle;rounded=0;orthogonalLoop=1;jettySize=auto;html=1;entryX=0.5;entryY=0;entryDx=0;entryDy=0;" edge="1" parent="1" source="fTdmXy7tgA4tEe0zFuN1-32" target="fTdmXy7tgA4tEe0zFuN1-34">
          <mxGeometry relative="1" as="geometry">
            <mxPoint x="-496" y="750" as="targetPoint" />
          </mxGeometry>
        </mxCell>
        <mxCell id="fTdmXy7tgA4tEe0zFuN1-32" value="Ingresa creación de proyecto" style="whiteSpace=wrap;html=1;" vertex="1" parent="1">
          <mxGeometry x="-556" y="600" width="120" height="60" as="geometry" />
        </mxCell>
        <mxCell id="fTdmXy7tgA4tEe0zFuN1-33" style="edgeStyle=orthogonalEdgeStyle;rounded=0;orthogonalLoop=1;jettySize=auto;html=1;" edge="1" parent="1" source="fTdmXy7tgA4tEe0zFuN1-34" target="fTdmXy7tgA4tEe0zFuN1-41">
          <mxGeometry relative="1" as="geometry" />
        </mxCell>
        <mxCell id="fTdmXy7tgA4tEe0zFuN1-34" value="Se ingresa nombre,&amp;nbsp;&lt;div&gt;estado, descripción,&lt;/div&gt;&lt;div&gt;fecha de inicio, fecha de fin&amp;nbsp;&lt;/div&gt;&lt;div&gt;&lt;div&gt;personas asociadas&lt;/div&gt;&lt;/div&gt;" style="shape=parallelogram;perimeter=parallelogramPerimeter;whiteSpace=wrap;html=1;fixedSize=1;" vertex="1" parent="1">
          <mxGeometry x="-581" y="690" width="170" height="60" as="geometry" />
        </mxCell>
        <mxCell id="fTdmXy7tgA4tEe0zFuN1-35" style="rounded=0;orthogonalLoop=1;jettySize=auto;html=1;endArrow=none;endFill=0;dashed=1;dashPattern=8 8;" edge="1" parent="1" source="fTdmXy7tgA4tEe0zFuN1-34" target="fTdmXy7tgA4tEe0zFuN1-36">
          <mxGeometry relative="1" as="geometry">
            <mxPoint x="-426" y="782" as="sourcePoint" />
          </mxGeometry>
        </mxCell>
        <mxCell id="fTdmXy7tgA4tEe0zFuN1-36" value="Se puede crear un&lt;div&gt;proyecto sin&amp;nbsp;&lt;/div&gt;&lt;div&gt;asociados&lt;/div&gt;" style="ellipse;shape=cloud;whiteSpace=wrap;html=1;" vertex="1" parent="1">
          <mxGeometry x="-346" y="700" width="170" height="120" as="geometry" />
        </mxCell>
        <mxCell id="fTdmXy7tgA4tEe0zFuN1-50" style="edgeStyle=orthogonalEdgeStyle;rounded=0;orthogonalLoop=1;jettySize=auto;html=1;" edge="1" parent="1" source="fTdmXy7tgA4tEe0zFuN1-41" target="fTdmXy7tgA4tEe0zFuN1-49">
          <mxGeometry relative="1" as="geometry">
            <Array as="points">
              <mxPoint x="-381" y="820" />
            </Array>
          </mxGeometry>
        </mxCell>
        <mxCell id="fTdmXy7tgA4tEe0zFuN1-41" value="¿Confirma creacion?" style="rhombus;whiteSpace=wrap;html=1;" vertex="1" parent="1">
          <mxGeometry x="-551" y="770" width="110" height="100" as="geometry" />
        </mxCell>
        <mxCell id="fTdmXy7tgA4tEe0zFuN1-42" value="No" style="text;html=1;align=center;verticalAlign=middle;resizable=0;points=[];autosize=1;strokeColor=none;fillColor=none;" vertex="1" parent="1">
          <mxGeometry x="-436" y="795" width="40" height="30" as="geometry" />
        </mxCell>
        <mxCell id="fTdmXy7tgA4tEe0zFuN1-43" value="Si" style="text;html=1;align=center;verticalAlign=middle;resizable=0;points=[];autosize=1;strokeColor=none;fillColor=none;" vertex="1" parent="1">
          <mxGeometry x="-606" y="795" width="30" height="30" as="geometry" />
        </mxCell>
        <mxCell id="fTdmXy7tgA4tEe0zFuN1-44" style="edgeStyle=orthogonalEdgeStyle;rounded=0;orthogonalLoop=1;jettySize=auto;html=1;entryX=0.5;entryY=0;entryDx=0;entryDy=0;" edge="1" parent="1" source="fTdmXy7tgA4tEe0zFuN1-41" target="fTdmXy7tgA4tEe0zFuN1-46">
          <mxGeometry relative="1" as="geometry">
            <mxPoint x="-661.8799999999999" y="931.8599999999999" as="targetPoint" />
          </mxGeometry>
        </mxCell>
        <mxCell id="fTdmXy7tgA4tEe0zFuN1-47" style="edgeStyle=orthogonalEdgeStyle;rounded=0;orthogonalLoop=1;jettySize=auto;html=1;entryX=0.5;entryY=0;entryDx=0;entryDy=0;" edge="1" parent="1" source="fTdmXy7tgA4tEe0zFuN1-46" target="fTdmXy7tgA4tEe0zFuN1-14">
          <mxGeometry relative="1" as="geometry">
            <Array as="points">
              <mxPoint x="-656" y="1010" />
              <mxPoint x="-990" y="1010" />
              <mxPoint x="-990" y="430" />
              <mxPoint x="310" y="430" />
            </Array>
          </mxGeometry>
        </mxCell>
        <mxCell id="fTdmXy7tgA4tEe0zFuN1-46" value="Crear el proyecto" style="whiteSpace=wrap;html=1;" vertex="1" parent="1">
          <mxGeometry x="-716" y="910" width="120" height="60" as="geometry" />
        </mxCell>
        <mxCell id="fTdmXy7tgA4tEe0zFuN1-51" style="edgeStyle=orthogonalEdgeStyle;rounded=0;orthogonalLoop=1;jettySize=auto;html=1;endArrow=none;endFill=0;" edge="1" parent="1" source="fTdmXy7tgA4tEe0zFuN1-49">
          <mxGeometry relative="1" as="geometry">
            <mxPoint x="-655.9999999999998" y="1010.0000000000002" as="targetPoint" />
            <Array as="points">
              <mxPoint x="-381" y="1010" />
            </Array>
          </mxGeometry>
        </mxCell>
        <mxCell id="fTdmXy7tgA4tEe0zFuN1-49" value="Descartar proyecto&amp;nbsp;" style="whiteSpace=wrap;html=1;" vertex="1" parent="1">
          <mxGeometry x="-441" y="910" width="120" height="60" as="geometry" />
        </mxCell>
        <mxCell id="fTdmXy7tgA4tEe0zFuN1-86" value="Modificar proyecto" style="text;html=1;align=center;verticalAlign=middle;resizable=0;points=[];autosize=1;strokeColor=none;fillColor=none;" vertex="1" parent="1">
          <mxGeometry x="897" y="570" width="120" height="30" as="geometry" />
        </mxCell>
        <mxCell id="fTdmXy7tgA4tEe0zFuN1-87" style="edgeStyle=orthogonalEdgeStyle;rounded=0;orthogonalLoop=1;jettySize=auto;html=1;" edge="1" parent="1" source="fTdmXy7tgA4tEe0zFuN1-88">
          <mxGeometry relative="1" as="geometry">
            <mxPoint x="1262.0000000000005" y="759.9999999999999" as="targetPoint" />
          </mxGeometry>
        </mxCell>
        <mxCell id="fTdmXy7tgA4tEe0zFuN1-88" value="Ingresa modificar proyecto" style="whiteSpace=wrap;html=1;" vertex="1" parent="1">
          <mxGeometry x="1202" y="676" width="120" height="56" as="geometry" />
        </mxCell>
        <mxCell id="fTdmXy7tgA4tEe0zFuN1-118" style="edgeStyle=orthogonalEdgeStyle;rounded=0;orthogonalLoop=1;jettySize=auto;html=1;entryX=0.5;entryY=0;entryDx=0;entryDy=0;" edge="1" parent="1" source="fTdmXy7tgA4tEe0zFuN1-92" target="fTdmXy7tgA4tEe0zFuN1-105">
          <mxGeometry relative="1" as="geometry" />
        </mxCell>
        <mxCell id="fTdmXy7tgA4tEe0zFuN1-92" value="Modificar atributo" style="whiteSpace=wrap;html=1;" vertex="1" parent="1">
          <mxGeometry x="1202" y="760" width="120" height="60" as="geometry" />
        </mxCell>
        <mxCell id="fTdmXy7tgA4tEe0zFuN1-103" style="edgeStyle=orthogonalEdgeStyle;rounded=0;orthogonalLoop=1;jettySize=auto;html=1;entryX=0.5;entryY=0;entryDx=0;entryDy=0;" edge="1" parent="1" source="fTdmXy7tgA4tEe0zFuN1-105">
          <mxGeometry relative="1" as="geometry">
            <mxPoint x="1068" y="963" as="targetPoint" />
          </mxGeometry>
        </mxCell>
        <mxCell id="fTdmXy7tgA4tEe0zFuN1-126" style="edgeStyle=orthogonalEdgeStyle;rounded=0;orthogonalLoop=1;jettySize=auto;html=1;" edge="1" parent="1" source="fTdmXy7tgA4tEe0zFuN1-105" target="fTdmXy7tgA4tEe0zFuN1-125">
          <mxGeometry relative="1" as="geometry" />
        </mxCell>
        <mxCell id="fTdmXy7tgA4tEe0zFuN1-105" value="¿Confirma cambios?" style="rhombus;whiteSpace=wrap;html=1;" vertex="1" parent="1">
          <mxGeometry x="1182" y="843" width="160" height="100" as="geometry" />
        </mxCell>
        <mxCell id="fTdmXy7tgA4tEe0zFuN1-106" style="rounded=0;orthogonalLoop=1;jettySize=auto;html=1;endArrow=none;endFill=0;dashed=1;dashPattern=8 8;" edge="1" parent="1" source="fTdmXy7tgA4tEe0zFuN1-105" target="fTdmXy7tgA4tEe0zFuN1-107">
          <mxGeometry relative="1" as="geometry">
            <mxPoint x="1342" y="887" as="sourcePoint" />
            <mxPoint x="1415.5531370191243" y="880.8338501834232" as="targetPoint" />
          </mxGeometry>
        </mxCell>
        <mxCell id="fTdmXy7tgA4tEe0zFuN1-107" value="Si no modifico nada,&amp;nbsp;&lt;div&gt;iria por la parte del no&lt;/div&gt;" style="ellipse;shape=cloud;whiteSpace=wrap;html=1;" vertex="1" parent="1">
          <mxGeometry x="1581" y="920" width="170" height="120" as="geometry" />
        </mxCell>
        <mxCell id="fTdmXy7tgA4tEe0zFuN1-108" value="No" style="text;html=1;align=center;verticalAlign=middle;resizable=0;points=[];autosize=1;strokeColor=none;fillColor=none;" vertex="1" parent="1">
          <mxGeometry x="1332" y="853" width="40" height="30" as="geometry" />
        </mxCell>
        <mxCell id="fTdmXy7tgA4tEe0zFuN1-109" value="Si" style="text;html=1;align=center;verticalAlign=middle;resizable=0;points=[];autosize=1;strokeColor=none;fillColor=none;" vertex="1" parent="1">
          <mxGeometry x="1162" y="853" width="30" height="30" as="geometry" />
        </mxCell>
        <mxCell id="fTdmXy7tgA4tEe0zFuN1-119" style="edgeStyle=orthogonalEdgeStyle;rounded=0;orthogonalLoop=1;jettySize=auto;html=1;entryX=0.5;entryY=0;entryDx=0;entryDy=0;" edge="1" parent="1" source="fTdmXy7tgA4tEe0zFuN1-111" target="fTdmXy7tgA4tEe0zFuN1-14">
          <mxGeometry relative="1" as="geometry">
            <Array as="points">
              <mxPoint x="1070" y="1160" />
              <mxPoint x="860" y="1160" />
              <mxPoint x="860" y="430" />
              <mxPoint x="310" y="430" />
            </Array>
          </mxGeometry>
        </mxCell>
        <mxCell id="fTdmXy7tgA4tEe0zFuN1-111" value="Guardar cambios&amp;nbsp;" style="whiteSpace=wrap;html=1;" vertex="1" parent="1">
          <mxGeometry x="997" y="963" width="140" height="60" as="geometry" />
        </mxCell>
        <mxCell id="fTdmXy7tgA4tEe0zFuN1-116" style="rounded=0;orthogonalLoop=1;jettySize=auto;html=1;endArrow=none;endFill=0;dashed=1;dashPattern=8 8;" edge="1" parent="1" target="fTdmXy7tgA4tEe0zFuN1-117">
          <mxGeometry relative="1" as="geometry">
            <mxPoint x="1322" y="792" as="sourcePoint" />
          </mxGeometry>
        </mxCell>
        <mxCell id="fTdmXy7tgA4tEe0zFuN1-117" value="Se pueden modificar todos&amp;nbsp;&lt;div&gt;los atributos mencionado&amp;nbsp;&lt;/div&gt;&lt;div&gt;en creacion de proyecto&lt;/div&gt;" style="ellipse;shape=cloud;whiteSpace=wrap;html=1;" vertex="1" parent="1">
          <mxGeometry x="1414" y="665" width="196" height="130" as="geometry" />
        </mxCell>
        <mxCell id="fTdmXy7tgA4tEe0zFuN1-127" style="edgeStyle=orthogonalEdgeStyle;rounded=0;orthogonalLoop=1;jettySize=auto;html=1;endArrow=none;endFill=0;" edge="1" parent="1" source="fTdmXy7tgA4tEe0zFuN1-125">
          <mxGeometry relative="1" as="geometry">
            <mxPoint x="1067" y="1160" as="targetPoint" />
            <Array as="points">
              <mxPoint x="1437" y="1160" />
            </Array>
          </mxGeometry>
        </mxCell>
        <mxCell id="fTdmXy7tgA4tEe0zFuN1-125" value="Descartar cambios" style="whiteSpace=wrap;html=1;" vertex="1" parent="1">
          <mxGeometry x="1367" y="963" width="140" height="60" as="geometry" />
        </mxCell>
        <mxCell id="fTdmXy7tgA4tEe0zFuN1-129" value="Registrar usuario" style="text;html=1;align=center;verticalAlign=middle;resizable=0;points=[];autosize=1;strokeColor=none;fillColor=none;" vertex="1" parent="1">
          <mxGeometry x="1945" y="570" width="110" height="30" as="geometry" />
        </mxCell>
        <mxCell id="fTdmXy7tgA4tEe0zFuN1-130" style="edgeStyle=orthogonalEdgeStyle;rounded=0;orthogonalLoop=1;jettySize=auto;html=1;entryX=0.5;entryY=0;entryDx=0;entryDy=0;" edge="1" parent="1" source="fTdmXy7tgA4tEe0zFuN1-131">
          <mxGeometry relative="1" as="geometry">
            <mxPoint x="2315" y="760" as="targetPoint" />
            <Array as="points" />
          </mxGeometry>
        </mxCell>
        <mxCell id="fTdmXy7tgA4tEe0zFuN1-131" value="Ingresar registrar usuario" style="whiteSpace=wrap;html=1;" vertex="1" parent="1">
          <mxGeometry x="2255" y="670" width="120" height="60" as="geometry" />
        </mxCell>
        <mxCell id="fTdmXy7tgA4tEe0zFuN1-132" style="edgeStyle=orthogonalEdgeStyle;rounded=0;orthogonalLoop=1;jettySize=auto;html=1;entryX=0.5;entryY=0;entryDx=0;entryDy=0;" edge="1" parent="1" source="fTdmXy7tgA4tEe0zFuN1-133" target="fTdmXy7tgA4tEe0zFuN1-135">
          <mxGeometry relative="1" as="geometry" />
        </mxCell>
        <mxCell id="fTdmXy7tgA4tEe0zFuN1-133" value="Cargar atributos&lt;br&gt;de un usuario" style="shape=parallelogram;perimeter=parallelogramPerimeter;whiteSpace=wrap;html=1;fixedSize=1;" vertex="1" parent="1">
          <mxGeometry x="2255" y="760" width="120" height="60" as="geometry" />
        </mxCell>
        <mxCell id="fTdmXy7tgA4tEe0zFuN1-134" style="edgeStyle=orthogonalEdgeStyle;rounded=0;orthogonalLoop=1;jettySize=auto;html=1;" edge="1" parent="1" source="fTdmXy7tgA4tEe0zFuN1-135" target="fTdmXy7tgA4tEe0zFuN1-137">
          <mxGeometry relative="1" as="geometry">
            <Array as="points">
              <mxPoint x="2190" y="895" />
            </Array>
          </mxGeometry>
        </mxCell>
        <mxCell id="fTdmXy7tgA4tEe0zFuN1-147" style="edgeStyle=orthogonalEdgeStyle;rounded=0;orthogonalLoop=1;jettySize=auto;html=1;" edge="1" parent="1" source="fTdmXy7tgA4tEe0zFuN1-135" target="fTdmXy7tgA4tEe0zFuN1-146">
          <mxGeometry relative="1" as="geometry">
            <Array as="points">
              <mxPoint x="2435" y="895" />
            </Array>
          </mxGeometry>
        </mxCell>
        <mxCell id="fTdmXy7tgA4tEe0zFuN1-135" value="¿Confirma creacion de usuarios?" style="rhombus;whiteSpace=wrap;html=1;" vertex="1" parent="1">
          <mxGeometry x="2235" y="845" width="160" height="100" as="geometry" />
        </mxCell>
        <mxCell id="fTdmXy7tgA4tEe0zFuN1-136" style="edgeStyle=orthogonalEdgeStyle;rounded=0;orthogonalLoop=1;jettySize=auto;html=1;" edge="1" parent="1" source="fTdmXy7tgA4tEe0zFuN1-137" target="fTdmXy7tgA4tEe0zFuN1-142">
          <mxGeometry relative="1" as="geometry" />
        </mxCell>
        <mxCell id="fTdmXy7tgA4tEe0zFuN1-137" value="Crea usuario" style="whiteSpace=wrap;html=1;" vertex="1" parent="1">
          <mxGeometry x="2130" y="960" width="120" height="60" as="geometry" />
        </mxCell>
        <mxCell id="fTdmXy7tgA4tEe0zFuN1-138" value="No" style="text;html=1;align=center;verticalAlign=middle;resizable=0;points=[];autosize=1;strokeColor=none;fillColor=none;" vertex="1" parent="1">
          <mxGeometry x="2380" y="865" width="40" height="30" as="geometry" />
        </mxCell>
        <mxCell id="fTdmXy7tgA4tEe0zFuN1-139" value="Si" style="text;html=1;align=center;verticalAlign=middle;resizable=0;points=[];autosize=1;strokeColor=none;fillColor=none;" vertex="1" parent="1">
          <mxGeometry x="2210" y="865" width="30" height="30" as="geometry" />
        </mxCell>
        <mxCell id="fTdmXy7tgA4tEe0zFuN1-148" style="edgeStyle=orthogonalEdgeStyle;rounded=0;orthogonalLoop=1;jettySize=auto;html=1;entryX=0.5;entryY=0;entryDx=0;entryDy=0;" edge="1" parent="1" source="fTdmXy7tgA4tEe0zFuN1-142" target="fTdmXy7tgA4tEe0zFuN1-14">
          <mxGeometry relative="1" as="geometry">
            <Array as="points">
              <mxPoint x="2680" y="1100" />
              <mxPoint x="2680" y="430" />
              <mxPoint x="310" y="430" />
            </Array>
          </mxGeometry>
        </mxCell>
        <mxCell id="fTdmXy7tgA4tEe0zFuN1-150" style="edgeStyle=orthogonalEdgeStyle;rounded=0;orthogonalLoop=1;jettySize=auto;html=1;entryX=0.5;entryY=0;entryDx=0;entryDy=0;" edge="1" parent="1" source="fTdmXy7tgA4tEe0zFuN1-142" target="fTdmXy7tgA4tEe0zFuN1-131">
          <mxGeometry relative="1" as="geometry">
            <Array as="points">
              <mxPoint x="2040" y="1100" />
              <mxPoint x="2040" y="650" />
              <mxPoint x="2315" y="650" />
            </Array>
          </mxGeometry>
        </mxCell>
        <mxCell id="fTdmXy7tgA4tEe0zFuN1-142" value="¿Quiere crear otro?" style="rhombus;whiteSpace=wrap;html=1;" vertex="1" parent="1">
          <mxGeometry x="2110" y="1050" width="160" height="100" as="geometry" />
        </mxCell>
        <mxCell id="fTdmXy7tgA4tEe0zFuN1-143" value="No" style="text;html=1;align=center;verticalAlign=middle;resizable=0;points=[];autosize=1;strokeColor=none;fillColor=none;" vertex="1" parent="1">
          <mxGeometry x="2255" y="1070" width="40" height="30" as="geometry" />
        </mxCell>
        <mxCell id="fTdmXy7tgA4tEe0zFuN1-144" value="Si" style="text;html=1;align=center;verticalAlign=middle;resizable=0;points=[];autosize=1;strokeColor=none;fillColor=none;" vertex="1" parent="1">
          <mxGeometry x="2085" y="1070" width="30" height="30" as="geometry" />
        </mxCell>
        <mxCell id="fTdmXy7tgA4tEe0zFuN1-149" style="edgeStyle=orthogonalEdgeStyle;rounded=0;orthogonalLoop=1;jettySize=auto;html=1;endArrow=none;endFill=0;" edge="1" parent="1" source="fTdmXy7tgA4tEe0zFuN1-146">
          <mxGeometry relative="1" as="geometry">
            <mxPoint x="2435" y="1099.9999999999998" as="targetPoint" />
          </mxGeometry>
        </mxCell>
        <mxCell id="fTdmXy7tgA4tEe0zFuN1-146" value="Descartar usuario" style="whiteSpace=wrap;html=1;" vertex="1" parent="1">
          <mxGeometry x="2375" y="960" width="120" height="60" as="geometry" />
        </mxCell>
        <mxCell id="fTdmXy7tgA4tEe0zFuN1-151" value="" style="rounded=0;whiteSpace=wrap;html=1;" vertex="1" parent="1">
          <mxGeometry x="2710" y="570" width="710" height="670" as="geometry" />
        </mxCell>
        <mxCell id="fTdmXy7tgA4tEe0zFuN1-152" value="Modificar usuario" style="text;html=1;align=center;verticalAlign=middle;resizable=0;points=[];autosize=1;strokeColor=none;fillColor=none;" vertex="1" parent="1">
          <mxGeometry x="2715" y="570" width="110" height="30" as="geometry" />
        </mxCell>
        <mxCell id="fTdmXy7tgA4tEe0zFuN1-153" style="edgeStyle=orthogonalEdgeStyle;rounded=0;orthogonalLoop=1;jettySize=auto;html=1;entryX=0.5;entryY=0;entryDx=0;entryDy=0;" edge="1" parent="1" source="fTdmXy7tgA4tEe0zFuN1-154">
          <mxGeometry relative="1" as="geometry">
            <mxPoint x="3085" y="760" as="targetPoint" />
            <Array as="points" />
          </mxGeometry>
        </mxCell>
        <mxCell id="fTdmXy7tgA4tEe0zFuN1-154" value="Ingresar modificar usuario" style="whiteSpace=wrap;html=1;" vertex="1" parent="1">
          <mxGeometry x="3025" y="670" width="120" height="60" as="geometry" />
        </mxCell>
        <mxCell id="fTdmXy7tgA4tEe0zFuN1-155" style="edgeStyle=orthogonalEdgeStyle;rounded=0;orthogonalLoop=1;jettySize=auto;html=1;entryX=0.5;entryY=0;entryDx=0;entryDy=0;" edge="1" parent="1" target="fTdmXy7tgA4tEe0zFuN1-159">
          <mxGeometry relative="1" as="geometry">
            <mxPoint x="3085" y="820" as="sourcePoint" />
          </mxGeometry>
        </mxCell>
        <mxCell id="fTdmXy7tgA4tEe0zFuN1-157" style="edgeStyle=orthogonalEdgeStyle;rounded=0;orthogonalLoop=1;jettySize=auto;html=1;" edge="1" parent="1" source="fTdmXy7tgA4tEe0zFuN1-159" target="fTdmXy7tgA4tEe0zFuN1-161">
          <mxGeometry relative="1" as="geometry">
            <Array as="points">
              <mxPoint x="2960" y="895" />
            </Array>
          </mxGeometry>
        </mxCell>
        <mxCell id="fTdmXy7tgA4tEe0zFuN1-158" style="edgeStyle=orthogonalEdgeStyle;rounded=0;orthogonalLoop=1;jettySize=auto;html=1;" edge="1" parent="1" source="fTdmXy7tgA4tEe0zFuN1-159" target="fTdmXy7tgA4tEe0zFuN1-169">
          <mxGeometry relative="1" as="geometry">
            <Array as="points">
              <mxPoint x="3205" y="895" />
            </Array>
          </mxGeometry>
        </mxCell>
        <mxCell id="fTdmXy7tgA4tEe0zFuN1-159" value="¿Confirma cambios?" style="rhombus;whiteSpace=wrap;html=1;" vertex="1" parent="1">
          <mxGeometry x="3005" y="845" width="160" height="100" as="geometry" />
        </mxCell>
        <mxCell id="fTdmXy7tgA4tEe0zFuN1-172" style="edgeStyle=orthogonalEdgeStyle;rounded=0;orthogonalLoop=1;jettySize=auto;html=1;endArrow=none;endFill=0;" edge="1" parent="1" source="fTdmXy7tgA4tEe0zFuN1-161">
          <mxGeometry relative="1" as="geometry">
            <mxPoint x="2680" y="1100" as="targetPoint" />
            <Array as="points">
              <mxPoint x="2960" y="1100" />
            </Array>
          </mxGeometry>
        </mxCell>
        <mxCell id="fTdmXy7tgA4tEe0zFuN1-161" value="Guardar cambios" style="whiteSpace=wrap;html=1;" vertex="1" parent="1">
          <mxGeometry x="2900" y="960" width="120" height="60" as="geometry" />
        </mxCell>
        <mxCell id="fTdmXy7tgA4tEe0zFuN1-162" value="No" style="text;html=1;align=center;verticalAlign=middle;resizable=0;points=[];autosize=1;strokeColor=none;fillColor=none;" vertex="1" parent="1">
          <mxGeometry x="3150" y="865" width="40" height="30" as="geometry" />
        </mxCell>
        <mxCell id="fTdmXy7tgA4tEe0zFuN1-163" value="Si" style="text;html=1;align=center;verticalAlign=middle;resizable=0;points=[];autosize=1;strokeColor=none;fillColor=none;" vertex="1" parent="1">
          <mxGeometry x="2980" y="865" width="30" height="30" as="geometry" />
        </mxCell>
        <mxCell id="fTdmXy7tgA4tEe0zFuN1-168" style="edgeStyle=orthogonalEdgeStyle;rounded=0;orthogonalLoop=1;jettySize=auto;html=1;endArrow=none;endFill=0;" edge="1" parent="1" source="fTdmXy7tgA4tEe0zFuN1-169">
          <mxGeometry relative="1" as="geometry">
            <mxPoint x="2960" y="1100" as="targetPoint" />
            <Array as="points">
              <mxPoint x="3205" y="1100" />
            </Array>
          </mxGeometry>
        </mxCell>
        <mxCell id="fTdmXy7tgA4tEe0zFuN1-169" value="Descartar cambios" style="whiteSpace=wrap;html=1;" vertex="1" parent="1">
          <mxGeometry x="3145" y="960" width="120" height="60" as="geometry" />
        </mxCell>
        <mxCell id="fTdmXy7tgA4tEe0zFuN1-170" value="Modificar atributos de usuario" style="whiteSpace=wrap;html=1;" vertex="1" parent="1">
          <mxGeometry x="3025" y="760" width="120" height="60" as="geometry" />
        </mxCell>
        <mxCell id="fTdmXy7tgA4tEe0zFuN1-179" style="edgeStyle=orthogonalEdgeStyle;rounded=0;orthogonalLoop=1;jettySize=auto;html=1;" edge="1" parent="1" source="fTdmXy7tgA4tEe0zFuN1-173" target="fTdmXy7tgA4tEe0zFuN1-176">
          <mxGeometry relative="1" as="geometry" />
        </mxCell>
        <mxCell id="fTdmXy7tgA4tEe0zFuN1-183" style="edgeStyle=orthogonalEdgeStyle;rounded=0;orthogonalLoop=1;jettySize=auto;html=1;" edge="1" parent="1" source="fTdmXy7tgA4tEe0zFuN1-173" target="fTdmXy7tgA4tEe0zFuN1-182">
          <mxGeometry relative="1" as="geometry">
            <Array as="points">
              <mxPoint x="303" y="1390" />
              <mxPoint x="443" y="1390" />
            </Array>
          </mxGeometry>
        </mxCell>
        <mxCell id="fTdmXy7tgA4tEe0zFuN1-186" style="edgeStyle=orthogonalEdgeStyle;rounded=0;orthogonalLoop=1;jettySize=auto;html=1;" edge="1" parent="1" source="fTdmXy7tgA4tEe0zFuN1-173" target="fTdmXy7tgA4tEe0zFuN1-185">
          <mxGeometry relative="1" as="geometry">
            <Array as="points">
              <mxPoint x="303" y="1390" />
              <mxPoint x="160" y="1390" />
            </Array>
          </mxGeometry>
        </mxCell>
        <mxCell id="fTdmXy7tgA4tEe0zFuN1-173" value="Ingresa a Listar Riesgos" style="whiteSpace=wrap;html=1;" vertex="1" parent="1">
          <mxGeometry x="243" y="1310" width="120" height="60" as="geometry" />
        </mxCell>
        <mxCell id="fTdmXy7tgA4tEe0zFuN1-180" style="edgeStyle=orthogonalEdgeStyle;rounded=0;orthogonalLoop=1;jettySize=auto;html=1;" edge="1" parent="1" source="fTdmXy7tgA4tEe0zFuN1-176" target="fTdmXy7tgA4tEe0zFuN1-177">
          <mxGeometry relative="1" as="geometry" />
        </mxCell>
        <mxCell id="fTdmXy7tgA4tEe0zFuN1-176" value="Ingresar a evaluaciones" style="whiteSpace=wrap;html=1;" vertex="1" parent="1">
          <mxGeometry x="243" y="1420" width="120" height="60" as="geometry" />
        </mxCell>
        <mxCell id="fTdmXy7tgA4tEe0zFuN1-177" value="Fin" style="rounded=1;whiteSpace=wrap;html=1;" vertex="1" parent="1">
          <mxGeometry x="245" y="1540" width="116" height="30" as="geometry" />
        </mxCell>
        <mxCell id="fTdmXy7tgA4tEe0zFuN1-184" style="edgeStyle=orthogonalEdgeStyle;rounded=0;orthogonalLoop=1;jettySize=auto;html=1;entryX=0.5;entryY=0;entryDx=0;entryDy=0;" edge="1" parent="1" source="fTdmXy7tgA4tEe0zFuN1-182" target="fTdmXy7tgA4tEe0zFuN1-177">
          <mxGeometry relative="1" as="geometry">
            <Array as="points">
              <mxPoint x="443" y="1490" />
              <mxPoint x="303" y="1490" />
            </Array>
          </mxGeometry>
        </mxCell>
        <mxCell id="fTdmXy7tgA4tEe0zFuN1-182" value="Ingresar a informes" style="whiteSpace=wrap;html=1;" vertex="1" parent="1">
          <mxGeometry x="383" y="1420" width="120" height="60" as="geometry" />
        </mxCell>
        <mxCell id="fTdmXy7tgA4tEe0zFuN1-187" style="edgeStyle=orthogonalEdgeStyle;rounded=0;orthogonalLoop=1;jettySize=auto;html=1;entryX=0.5;entryY=0;entryDx=0;entryDy=0;" edge="1" parent="1" source="fTdmXy7tgA4tEe0zFuN1-185" target="fTdmXy7tgA4tEe0zFuN1-177">
          <mxGeometry relative="1" as="geometry">
            <Array as="points">
              <mxPoint x="160" y="1490" />
              <mxPoint x="303" y="1490" />
            </Array>
          </mxGeometry>
        </mxCell>
        <mxCell id="fTdmXy7tgA4tEe0zFuN1-185" value="Ingresar a planes" style="whiteSpace=wrap;html=1;" vertex="1" parent="1">
          <mxGeometry x="100" y="1420" width="120" height="60" as="geometry" />
        </mxCell>
      </root>
    </mxGraphModel>
  </diagram>
</mxfile>
